<svg id="visual" viewBox="0 0 960 540" width="960" height="540" xmlns="http://www.w3.org/2000/svg" xmlns:xlink="http://www.w3.org/1999/xlink" version="1.1"><rect x="0" y="0" width="960" height="540" fill="#001220"></rect><defs><linearGradient id="grad1_0" x1="43.8%" y1="0%" x2="100%" y2="100%"><stop offset="14.444444444444446%" stop-color="#001220" stop-opacity="1"></stop><stop offset="85.55555555555554%" stop-color="#001220" stop-opacity="1"></stop></linearGradient></defs><defs><linearGradient id="grad2_0" x1="0%" y1="0%" x2="56.3%" y2="100%"><stop offset="14.444444444444446%" stop-color="#001220" stop-opacity="1"></stop><stop offset="85.55555555555554%" stop-color="#001220" stop-opacity="1"></stop></linearGradient></defs><g transform="translate(960, 0)"><path d="M0 351C-29.2 324.6 -58.3 298.2 -94.9 292C-131.4 285.8 -175.4 299.8 -206.3 284C-237.2 268.1 -255.1 222.3 -249.2 181C-243.2 139.8 -213.4 103 -226.4 73.5C-239.3 44.1 -295.2 22.1 -351 0L0 0Z" fill="#FBAE3C"></path></g><g transform="translate(0, 540)"><path d="M0 -351C43.9 -357.5 87.9 -363.9 108.5 -333.8C129.1 -303.7 126.3 -237.1 155.2 -213.6C184 -190.1 244.5 -209.7 268.6 -195.1C292.7 -180.6 280.5 -131.9 288.2 -93.6C295.8 -55.4 323.4 -27.7 351 0L0 0Z" fill="#FBAE3C"></path></g></svg>